Patient4_TMGait_0pt4_01_right_29_GRF.mot
version=1
nRows=32
nColumns=19
inDegrees=no
endheader
time	F1x	F1y	F1z	M1x	M1y	M1z	F2x	F2y	F2z	M2x	M2y	M2z	EC1x	EC1y	EC1z	EC2x	EC2y	EC2z
37.41	-8.8849	716.9669	78.9493	-263.4052	-84.6771	806.4114	-9.2422	6.3599	5.0317	-0.47912	-2.4113	7.8431	-0.0592	0.0182	-0.0073	-0.0462	0.0165	0.9585
37.4235	-5.8629	714.6378	74.0933	-261.9556	-79.0666	800.5399	-6.4154	4.736	3.4206	-0.15265	-1.5117	5.8144	-0.0592	0.0182	-0.0073	-0.0462	0.0165	0.9585
37.437	-2.5491	712.8753	69.7018	-260.7941	-73.6333	794.8956	-4.006	3.434	2.0049	0.14999	-0.72814	4.1904	-0.0592	0.0182	-0.0073	-0.0462	0.0165	0.9585
37.4505	0.8777	712.6055	66.0336	-260.3149	-68.6857	790.6305	-2.1636	2.5137	0.89567	0.4059	-0.11914	3.0421	-0.0592	0.0182	-0.0073	-0.0462	0.0165	0.9585
37.464	4.2663	714.596	63.1599	-260.8275	-64.3711	788.6872	-0.88347	1.9439	0.10733	0.60595	0.30822	2.3284	-0.0592	0.0182	-0.0073	-0.0462	0.0165	0.9585
37.4775	7.5131	719.2371	61.0373	-262.4776	-60.7248	789.559	-0.10501	1.6447	-0.39085	0.74799	0.57425	1.9579	-0.0592	0.0182	-0.0073	-0.0462	0.0165	0.9585
37.491	10.5697	726.4428	59.5331	-265.223	-57.6827	793.1906	0.27976	1.5144	-0.66179	0.8313	0.72042	1.8074	-0.0592	0.0182	-0.0073	-0.0462	0.0165	0.9585
37.5045	13.414	735.6811	58.5107	-268.8471	-55.1585	799.0222	0.37998	1.456	-0.77529	0.85592	0.79426	1.762	-0.0592	0.0182	-0.0073	-0.0462	0.0165	0.9585
37.518	16.0703	746.0737	57.8196	-273.0004	-53.0303	806.101	0.28556	1.3524	-0.79343	0.81198	0.83706	1.6756	-0.0592	0.0182	-0.0073	-0.0462	0.0165	0.9585
37.5315	18.5892	756.5553	57.3578	-277.259	-51.1995	813.2794	0.06826	1.0803	-0.76693	0.68029	0.87798	1.3895	-0.0592	0.0182	-0.0073	-0.0462	0.0165	0.9585
37.545	21.0469	766.066	57.0277	-281.2017	-49.5572	819.4218	-0.21238	0.54586	-0.72898	0.4412	0.92872	0.77911	-0.0592	0.0182	-0.0073	-0.0462	0.0165	0.9585
37.5585	23.5199	773.7009	56.7816	-284.4626	-48.03	823.5632	-0.49882	-0.35257	-0.7006	0.069277	0.98852	-0.29528	-0.0592	0.0182	-0.0073	-0.0462	0.0165	0.9585
37.572	26.1099	778.8315	56.5854	-286.7796	-46.5458	825.0289	-0.75037	-1.6814	-0.68045	-0.45265	1.041	-1.917	-0.0592	0.0182	-0.0073	-0.0462	0.0165	0.9585
37.5855	28.91	781.1501	56.4378	-288.0145	-45.065	823.5108	-0.89003	-3.4352	-0.66182	-1.1192	1.0546	-4.0778	-0.0592	0.0182	-0.0073	-0.0462	0.0165	0.9585
37.599	31.9717	780.6598	56.3402	-288.1465	-43.5645	819.0547	-0.81941	-5.4945	-0.61804	-1.8846	0.96821	-6.6315	-0.0592	0.0182	-0.0073	-0.0462	0.0165	0.9585
37.6125	35.3102	777.5722	56.3286	-287.2314	-42.0734	811.9367	-0.43185	-7.5679	-0.5115	-2.6405	0.69609	-9.2179	-0.0592	0.0182	-0.0073	-0.0462	0.0165	0.9585
37.626	38.8769	772.2203	56.4488	-285.372	-40.6562	802.5754	0.42284	-9.1047	-0.28764	-3.1851	0.11729	-11.1635	-0.0592	0.0182	-0.0073	-0.0462	0.0165	0.9585
37.6395	42.5717	765.0441	56.7538	-282.7131	-39.405	791.5049	1.899	-9.21	0.10103	-3.1945	-0.88538	-11.3674	-0.0592	0.0182	-0.0073	-0.0462	0.0165	0.9585
37.653	46.251	756.5575	57.2858	-279.4322	-38.4121	779.3276	4.1297	-6.6237	0.70711	-2.2105	-2.4187	-8.2799	-0.0592	0.0182	-0.0073	-0.0462	0.0165	0.9585
37.6665	49.7531	747.2455	58.0684	-275.7046	-37.7604	766.6212	7.1655	0.29358	1.5549	0.35981	-4.5236	0.1299	-0.0592	0.0182	-0.0073	-0.0462	0.0165	0.9585
37.68	52.8955	737.4027	59.0548	-271.6465	-37.47	753.7665	10.9042	13.469	2.6308	5.2103	-7.1341	16.2584	-0.0592	0.0182	-0.0073	-0.0462	0.0165	0.9585
37.6935	55.4879	726.9602	60.1236	-267.2485	-37.4925	740.7772	14.9697	34.8262	3.8392	13.0311	-9.9827	42.5061	-0.0592	0.0182	-0.0073	-0.0462	0.0165	0.9585
37.707	57.3475	715.3506	61.0369	-262.33	-37.6625	727.1564	18.5559	65.7896	4.9768	24.3259	-12.5188	80.6746	-0.0592	0.0182	-0.0073	-0.0462	0.0165	0.9585
37.7205	58.2971	701.4699	61.4979	-256.5267	-37.7545	711.8487	20.3277	106.4981	5.6702	39.1238	-13.7994	130.9914	-0.0592	0.0182	-0.0073	-0.0462	0.0165	0.9585
37.734	58.2016	683.8615	61.1602	-249.3516	-37.4778	693.3871	18.5438	154.936	5.3952	56.6607	-12.566	191.0425	-0.0592	0.0182	-0.0073	-0.0462	0.0165	0.9585
37.7475	57.0361	661.1164	59.737	-240.3423	-36.5569	670.2797	12.1465	206.6235	3.5208	75.2729	-7.7222	255.3789	-0.0592	0.0182	-0.0073	-0.0462	0.0165	0.9585
37.761	54.9256	632.3796	57.0471	-229.2467	-34.7718	641.5327	2.6373	256.8482	-0.15109	93.2153	0.38196	318.1439	-0.0592	0.0182	-0.0073	-0.0462	0.0165	0.9585
37.7745	52.096	597.512	53.1426	-216.0667	-32.089	606.8234	-7.9911	302.65	-5.0485	109.4243	10.3219	375.4581	-0.0592	0.0182	-0.0073	-0.0462	0.0165	0.9585
37.788	48.7919	556.7875	48.2783	-200.9325	-28.6635	566.249	-18.2127	343.608	-10.5048	123.7678	20.7339	426.5946	-0.0592	0.0182	-0.0073	-0.0462	0.0165	0.9585
37.8015	45.1219	510.6429	42.7657	-184.0077	-24.7475	520.1307	-27.133	380.7003	-15.759	136.6369	30.3945	472.6763	-0.0592	0.0182	-0.0073	-0.0462	0.0165	0.9585
37.815	41.0919	459.7546	36.8812	-165.5217	-20.6006	469.0848	-34.3893	415.199	-20.3897	148.5214	38.6583	515.2544	-0.0592	0.0182	-0.0073	-0.0462	0.0165	0.9585
37.8285	36.6127	405.2134	30.8425	-145.835	-16.462	414.1896	-39.7966	448.2564	-24.2524	159.8529	45.3053	555.681	-0.0592	0.0182	-0.0073	-0.0462	0.0165	0.9585
